<svg xmlns="http://www.w3.org/2000/svg" version="1.1" xmlns:xlink="http://www.w3.org/1999/xlink" xmlns:svgjs="http://svgjs.com/svgjs" height="100%" width="100%" viewBox="0 0 300 300"><g id="svg-container" transform="matrix(4.36,0,0,4.36,-12.856765117645267,113.06127601623535)"><g id="surrounding_shape" transform="matrix(1,0,0,1,-67.5794002532959,-3.0064697265625)"><line x1="100" y1="0" x2="100" y2="22.957307243347167" stroke-width="1" stroke="#f47c48" data-shape-id="custom" surrounded-groups="symbols" fill-type="outline" id="surrounding_shape_0"></line></g><g id="headline" transform="matrix(1,0,0,1,8.348112869262696,-8.881784197001252e-16)"><text data-font-id="1343" font-family="bebas_neue__bold" id="headline_0" transform="matrix(1,0,0,1,30.7171875,-9.46953125)" svgjs:data="{&quot;leading&quot;:&quot;1.3&quot;}"><tspan dy="20.8" x="0" fill="#000000" svgjs:data="{&quot;leading&quot;:&quot;1.3&quot;,&quot;newLined&quot;:true}">CAR</tspan></text><text data-font-id="1316" font-family="bebas_neue__light" id="headline_1" transform="matrix(1,0,0,1,51.11390472412109,11.269531250000002)" svgjs:data="{&quot;leading&quot;:&quot;1.3&quot;}"><tspan id="headline_1_word_0" fill="#f47c48" svgjs:data="{&quot;leading&quot;:&quot;1.3&quot;}">IN</tspan></text></g><g id="tagline" transform="matrix(0.313578715270125,0,0,0.313578715270125,1.928570740699218,12.027519684159486)"><text data-font-id="1199" font-family="hkgrotesk__light_italic" id="tagline_0" transform="matrix(0.716197407891022,0,0,0.716197407891022,117.863623631234,-1.3835376365312664)" svgjs:data="{&quot;leading&quot;:&quot;1.3&quot;}"><tspan dy="20.8" x="0" fill="#f47c48" svgjs:data="{&quot;leading&quot;:&quot;1.3&quot;,&quot;newLined&quot;:true}">Innovate your car</tspan></text></g><g id="symbols" transform="matrix(2.5999994810474196,0,0,2.5999994810474196,7.60229307359978,-1.9629320609469207)"><svg version="1.1" xmlns="http://www.w3.org/2000/svg" xmlns:xlink="http://www.w3.org/1999/xlink" x="0px" y="0px" width="7.940104577154525" height="8.02703075513866" viewBox="0 0 81.8708 82.7671" enable-background="new 0 0 81.8708 82.7671" xml:space="preserve" data-external-asset-id="384765" id="symbols_0" fill="#f47c48">
<g id="Layer_3">
</g>
<g id="Layer_2_1_">
	<path d="M18.7743,7.7511l-8.1764,8.6411c-0.2176-0.1483-0.5163-0.132-0.7159,0.0559c-0.2308,0.2173-0.242,0.5806-0.0246,0.8114
		c0.0095,0.0101,0.0213,0.0177,0.0314,0.0267l-6.6798,9.7327c-0.2172-0.1451-0.513-0.1279-0.7112,0.0587
		c-0.2308,0.2173-0.242,0.5806-0.0246,0.8114c0.099,0.1051,0.2284,0.1619,0.3616,0.175L0.5049,51.5153
		c-0.1175,0.014-0.2317,0.0627-0.3245,0.1501c-0.2305,0.217-0.2417,0.5803-0.0244,0.8111c0.1737,0.1845,0.4404,0.2258,0.6583,0.1249
		l7.3439,9.7228c-0.0025,0.0023-0.0054,0.0041-0.0082,0.0067c-0.4613,0.4343-0.4831,1.1609-0.0485,1.6225
		c0.3717,0.3947,0.9569,0.4666,1.4073,0.2072l6.4161,8.8472c-0.1968,0.2194-0.1981,0.5553,0.0079,0.774
		c0.2173,0.2308,0.5803,0.2417,0.8111,0.0244c0.0326-0.0307,0.0599-0.0652,0.0839-0.1012l23.3901,9.0585
		c0.0029,0.0009,0.0053,0.0007,0.0079,0.0013c0.0039,0.0009,0.0079,0.0018,0.0119,0.0022c0.0038,0.0001,0.0075-0.0003,0.011-0.001
		c0.0027-0.0004,0.0056-0.0001,0.0083-0.0011l9.9656-2.9176c0.0881,0.2439,0.2262,0.4744,0.4151,0.6751
		c0.7434,0.7895,1.9853,0.8266,2.7748,0.0832c0.5311-0.5001,0.7202-1.2256,0.5613-1.888l10.0301-3.079
		c0.0252,0.0816,0.0668,0.1592,0.1291,0.2254c0.2173,0.2308,0.5803,0.2417,0.8111,0.0244c0.2308-0.2173,0.2414-0.5801,0.0241-0.8109
		c-0.016-0.017-0.0339-0.0305-0.0516-0.0449l14.485-17.9901c0.2088,0.1035,0.4678,0.0744,0.6474-0.0947
		c0.2308-0.2173,0.2417-0.5803,0.0244-0.8111c-0.0719-0.0764-0.1603-0.1264-0.254-0.1543l0.9365-12.037
		c0.2712-0.0079,0.5408-0.11,0.7539-0.3106c0.4614-0.4345,0.4834-1.1607,0.0488-1.6222c-0.1853-0.1968-0.4236-0.3128-0.6719-0.3486
		l0.4312-10.8242c0.107-0.0186,0.21-0.0671,0.295-0.1471c0.2308-0.2173,0.2417-0.5803,0.0244-0.8111
		c-0.1663-0.1766-0.4177-0.2234-0.63-0.1386L67.5144,9.7884c0.1985-0.2195,0.2007-0.5567-0.0061-0.7762
		c-0.2168-0.2302-0.5794-0.2415-0.81-0.0249L55.9917,4.35c0.1509-0.3487,0.091-0.7685-0.1858-1.0625
		c-0.3717-0.3947-0.9926-0.4133-1.3872-0.0417c-0.1344,0.1266-0.224,0.2821-0.2707,0.4475l-10.9291-3.084
		c0.0096-0.1527-0.0402-0.3087-0.1534-0.4289c-0.2173-0.2308-0.5803-0.2417-0.8111-0.0244
		c-0.1356,0.1277-0.1933,0.3054-0.1753,0.4775L31.5478,4.0984c-0.049-0.099-0.1131-0.1925-0.1928-0.2771
		c-0.4346-0.4615-1.1608-0.4832-1.6222-0.0488c-0.2689,0.2532-0.3874,0.6055-0.3546,0.9464l-9.6212,2.4544
		c-0.0246-0.0491-0.0539-0.0964-0.0934-0.1383c-0.2173-0.2308-0.5803-0.2417-0.811-0.0245
		C18.6441,7.207,18.6172,7.5221,18.7743,7.7511z M72.5033,19.4945c-0.0793,0.0897-0.1259,0.1976-0.1394,0.3099l-22.1146-2.6376
		c0.0283-0.1707-0.0183-0.352-0.1461-0.4878c-0.0289-0.0307-0.0608-0.0569-0.0946-0.0799l2.0633-5.067l2.7045-6.6427
		c0.3242,0.1095,0.6948,0.0451,0.9664-0.1968L72.5033,19.4945z M79.8875,43.5863c0.1137,0.1207,0.2476,0.2106,0.391,0.2707
		l-4.1435,9.2625l-4.8524,10.8457c-0.1327-0.0279-0.2727-0.0071-0.3948,0.0603L66.655,44.1122
		c0.2726-0.0862,0.5314-0.2313,0.7534-0.4403c0.385-0.3626,0.5897-0.844,0.6133-1.3336l11.5581,0.5543
		C79.6001,43.1431,79.7017,43.3889,79.8875,43.5863z M28.3958,76.5354c0.0672-0.1036,0.0966-0.2237,0.0901-0.3431l18.2231-10.8464
		c0.0452,0.0809,0.0995,0.1583,0.166,0.2289c0.2737,0.2907,0.6634,0.4062,1.0297,0.3438l1.4718,5.2089l1.7832,6.3107
		c-0.156,0.0812-0.304,0.1834-0.4381,0.3097c-0.3849,0.3624-0.5895,0.8433-0.6138,1.3326l-11.235-1.3172L28.3958,76.5354z
		 M8.5599,62.0834L3.9345,40.2358c0.0871-0.0139,0.1707-0.0496,0.2452-0.1038l15.5359,13.9355
		c-0.1736,0.1728-0.2127,0.4296-0.1164,0.6421l-4.4828,3.3307l-5.5822,4.1474C9.2395,62.0075,8.8809,61.9717,8.5599,62.0834z
		 M10.6687,17.2836c0.0271-0.0255,0.0503-0.053,0.0711-0.0819l9.6705,7.1778c-0.2455,0.4156-0.2074,0.9546,0.1219,1.3339
		l-1.5238,1.2602L4.1986,39.2202c-0.0678-0.0534-0.1438-0.0913-0.2241-0.1097l6.2049-21.6812
		C10.3504,17.4584,10.5327,17.4117,10.6687,17.2836z M72.3621,19.926c0.0116,0.1228,0.0601,0.2429,0.1514,0.3399
		c0.1052,0.1117,0.2449,0.1707,0.3871,0.1783l-4.1874,13.4319l-2.0281,6.5052c-0.5018-0.1674-1.0581-0.1254-1.5357,0.1259
		l-2.8036-4.2601L50.0269,17.5302c0.0177-0.013,0.0358-0.0244,0.0521-0.0398c0.0631-0.0594,0.108-0.1301,0.138-0.2059
		L72.3621,19.926z M70.6235,64.716L48.851,64.6697c-0.0249-0.242-0.1252-0.478-0.3047-0.6686
		c-0.0433-0.046-0.0897-0.086-0.1381-0.1231l0.5036-0.6121l15.9996-19.4349c0.4761,0.3461,1.0747,0.4528,1.6274,0.3151
		l4.2414,19.9549c-0.0029,0.0027-0.0064,0.0045-0.0094,0.0073C70.6004,64.2689,70.5506,64.5084,70.6235,64.716z M28.3332,75.831
		c-0.1943-0.2064-0.505-0.2357-0.7335-0.084l-1.8551-5.367l-5.3278-15.4163c0.0336-0.0203,0.0657-0.0443,0.0958-0.0727
		c0.0769-0.0724,0.1269-0.1614,0.1548-0.2557l25.9587,9.7784c-0.0918,0.2667-0.0823,0.5609,0.0295,0.8234L28.4643,76.0645
		C28.4397,75.9803,28.3977,75.8994,28.3332,75.831z M4.2699,40.0507c0.1888-0.2104,0.1962-0.5266,0.015-0.7454l11.3982-9.4251
		l4.9335-4.0795c0.1979,0.185,0.446,0.2871,0.7003,0.3049l-0.3974,9.1469l-0.8098,18.6488
		c-0.1041,0.0019-0.2076,0.0307-0.299,0.0894L4.2699,40.0507z M20.2298,53.9116l1.2077-27.8034
		c0.2689-0.0089,0.5361-0.1113,0.7475-0.3103c0.0123-0.0116,0.0228-0.024,0.0343-0.0359l13.3582,10.5475l3.9584,3.1257
		c-0.5228,0.6612-0.5626,1.585-0.1036,2.2869l-6.9727,4.5494l-11.9417,7.792C20.4357,53.9832,20.3356,53.9323,20.2298,53.9116z
		 M49.9231,17.5923l15.1203,22.9735c-0.1149,0.07-0.2243,0.1523-0.3261,0.2482c-0.3468,0.3266-0.5483,0.7497-0.6022,1.1883
		l-8.9296-0.5483l-12.1488-0.7455c0.0149-0.5016-0.1616-1.0094-0.5328-1.4036c-0.1791-0.1903-0.3878-0.3357-0.6118-0.4382
		l7.7133-21.2283C49.7125,17.6533,49.8224,17.6381,49.9231,17.5923z M64.6337,43.5881c0.0578,0.0613,0.1192,0.1165,0.1827,0.1688
		l-16.508,20.0525c-0.2706-0.1656-0.5956-0.2102-0.896-0.1299l-5.6776-21.1812c0.2475-0.0885,0.4819-0.227,0.6856-0.4188
		c0.3633-0.3421,0.5648-0.7901,0.6068-1.2506l21.0785,1.2937C64.0737,42.6445,64.2474,43.1777,64.6337,43.5881z M20.5959,54.1567
		l18.9048-12.3353c0.0449,0.06,0.0927,0.1187,0.1453,0.1746c0.5217,0.5541,1.289,0.736,1.9734,0.5388l5.6781,21.1828
		c-0.1346,0.0518-0.2622,0.1297-0.3739,0.2348c-0.1087,0.1023-0.1921,0.2217-0.2518,0.3491l-23.3507-8.7957l-2.6312-0.991
		C20.6988,54.3904,20.6679,54.265,20.5959,54.1567z M49.2677,17.4658c0.0631,0.0671,0.139,0.1134,0.2199,0.1431l-7.7073,21.2118
		c-0.682-0.2621-1.4834-0.134-2.0512,0.4006c-0.0411,0.0387-0.079,0.0796-0.1159,0.121L22.2995,25.671
		c0.1962-0.2493,0.2757-0.5618,0.2352-0.8629l9.1681-2.5576l17.4928-4.8794C49.2161,17.4044,49.2398,17.4362,49.2677,17.4658z
		 M9.7728,62.3797c-0.042-0.0446-0.0874-0.0835-0.1339-0.1197l10.022-7.4459c0.0135,0.0177,0.0253,0.0361,0.0407,0.0526
		c0.1598,0.1697,0.398,0.2192,0.6049,0.1483l7.1944,20.8163c-0.0813,0.0853-0.131,0.1895-0.1491,0.2985L14.0152,66.634
		L9.937,63.7301C10.1772,63.304,10.1257,62.7544,9.7728,62.3797z M53.4956,77.8314c-0.5869-0.6233-1.4849-0.7756-2.2255-0.4465
		l-3.2475-11.4931c0.1722-0.0486,0.3356-0.1373,0.4746-0.2682c0.2393-0.2253,0.3593-0.5289,0.3599-0.8332l21.8256,0.0464
		c0.0134,0.0205,0.0292,0.0401,0.0456,0.0593L53.5537,77.8996C53.5344,77.877,53.5165,77.8536,53.4956,77.8314z M79.5759,42.7713
		l-11.5527-0.5538c-0.006-0.4742-0.1808-0.9479-0.5317-1.3205c-0.2005-0.213-0.4384-0.3696-0.6933-0.4725l0.5345-1.7144
		l5.6966-18.2731c0.0571-0.0099,0.1124-0.0304,0.1649-0.0577l0.7592,2.2724l6.3709,19.0714c-0.14,0.0518-0.2724,0.132-0.3879,0.2408
		C79.7039,42.1829,79.5832,42.4758,79.5759,42.7713z M54.3769,4.633c0.0848,0.0901,0.1829,0.1594,0.2882,0.21l-4.7635,11.6995
		c-0.2014-0.082-0.4408-0.0466-0.6095,0.1121c-0.0324,0.0305-0.0592,0.0646-0.0829,0.1003L31.5934,5.0099
		c0.0612-0.164,0.084-0.3389,0.0674-0.5118l22.4588-0.4052C54.1464,4.2887,54.231,4.4781,54.3769,4.633z M49.1532,16.8629
		c-0.0501,0.1267-0.0535,0.2679-0.0091,0.397l-26.6317,7.4292c-0.0456-0.1864-0.1377-0.364-0.2785-0.5135
		c-0.0779-0.0827-0.1653-0.1506-0.2588-0.2052l0.4365-0.9745l7.7512-17.297c0.3859,0.1257,0.8269,0.0426,1.1434-0.2554
		c0.1007-0.0949,0.1795-0.2041,0.238-0.3212L49.1532,16.8629z M29.6839,5.3948c0.107,0.1136,0.232,0.2004,0.3661,0.2605
		L21.8677,23.915c-0.4104-0.1838-0.9086-0.1159-1.2564,0.2116c-0.0504,0.0474-0.0942,0.0985-0.1338,0.1518l-6.3388-4.7046
		l-3.338-2.4776c0.072-0.1649,0.0621-0.3565-0.0289-0.5156L29.5383,5.2029C29.5791,5.2704,29.6275,5.3349,29.6839,5.3948z
		 M9.9858,17.3585c0.0251,0.0146,0.0505,0.0284,0.077,0.039l-0.87,3.04L3.853,39.0962c-0.0261-0.0003-0.0517,0.0022-0.0773,0.0051
		L3.0474,28.0447c0.0856-0.0243,0.1675-0.0662,0.237-0.1317c0.2305-0.2171,0.2417-0.5803,0.0244-0.8111
		c-0.0021-0.0022-0.0044-0.0036-0.0065-0.0058L9.9858,17.3585z M2.9388,28.2348l0.7175,10.8932
		c-0.074,0.0257-0.1443,0.0662-0.2051,0.1234c-0.2305,0.217-0.2414,0.5806-0.0241,0.8114c0.0397,0.0422,0.0853,0.0741,0.1329,0.1016
		L0.7815,50.8092l-0.1371,0.5257L2.9388,28.2348z M0.9181,52.5388c0.0166-0.0125,0.0337-0.0235,0.049-0.0379
		c0.2308-0.2173,0.2417-0.5803,0.0244-0.8111c-0.0768-0.0816-0.1721-0.1344-0.2732-0.1606L3.672,40.2138
		c0.0456,0.0144,0.0926,0.0243,0.1399,0.0268L4.84,45.0973l3.6063,17.0321c-0.068,0.032-0.1333,0.0713-0.1951,0.1176L0.9181,52.5388
		z M16.768,72.9954c-0.2003-0.2127-0.5228-0.2365-0.7531-0.0692L9.61,64.0948c0.0394-0.0283,0.0776-0.0586,0.1137-0.0926
		c0.0558-0.0526,0.1052-0.1099,0.1482-0.17l15.6848,11.1679l1.7896,1.2742c0.002,0.0235,0.005,0.0464,0.0099,0.0698l-10.4534-2.8073
		C16.9525,73.3515,16.9095,73.1457,16.768,72.9954z M17.3859,73.7915l10.0199,2.6908c0.0241,0.0481,0.0533,0.0944,0.0919,0.1355
		c0.1668,0.1771,0.4191,0.2235,0.6318,0.1379l10.906,5.4205L17.3859,73.7915z M40.2457,82.6428l-11.9905-5.9595
		c0.0166-0.012,0.0332-0.0229,0.0482-0.0371l21.8031,2.5559c0.0021,0.1788,0.0284,0.357,0.0793,0.5301L40.2457,82.6428z
		 M63.9814,75.5194l-10.04,3.0821c-0.0659-0.2153-0.1677-0.4221-0.3099-0.6094l17.1852-13.0113
		c0.2192,0.1675,0.5331,0.1586,0.7407-0.0369c0.2005-0.1888,0.2347-0.4875,0.0976-0.7142l7.4624-7.0268l-14.3009,17.762
		c-0.2105-0.1106-0.476-0.0843-0.6591,0.0882C64.0247,75.1781,63.9673,75.3508,63.9814,75.5194z M79.238,56.9236l-7.6561,7.2091
		c-0.0536-0.0569-0.1162-0.1003-0.1835-0.1304l8.9943-20.1047c0.0791,0.0237,0.1604,0.0385,0.2422,0.0447l-0.9348,12.0178
		c-0.1555-0.0121-0.3151,0.0369-0.4378,0.1524C79.0318,56.3297,79.0207,56.6929,79.238,56.9236z M80.8019,30.6684
		c0.1072,0.1139,0.25,0.1736,0.395,0.1796l-0.4306,10.8051c-0.1096-0.0042-0.2195,0.0073-0.3263,0.0346l-7.1414-21.3776
		c0.0044-0.0036,0.0092-0.0066,0.0135-0.0106l3.6424,4.5947l3.9105,4.9335c-0.0128,0.01-0.0265,0.0182-0.0387,0.0297
		C80.5955,30.0746,80.5845,30.4376,80.8019,30.6684z M80.3379,28.9681l-6.9432-8.7589c0.1592-0.2186,0.1463-0.5261-0.0457-0.7301
		c-0.1402-0.1489-0.3407-0.2049-0.5273-0.1687l-4.9865-8.8324L80.3379,28.9681z M66.6166,9.0833
		c-0.1479,0.2178-0.1314,0.5162,0.0563,0.7155c0.1848,0.1963,0.4745,0.2318,0.6992,0.1049l5.3316,9.4438
		c-0.0388,0.0169-0.0756,0.0387-0.1109,0.0646L55.8286,4.6074c0.0413-0.0472,0.077-0.0973,0.1078-0.1496L66.6166,9.0833z
		 M42.1042,0.7526C42.1295,0.83,42.1702,0.9037,42.23,0.9672c0.2173,0.2308,0.5803,0.2417,0.8111,0.0244
		c0.0787-0.0741,0.1297-0.1655,0.157-0.2624l10.9239,3.0826c-0.0081,0.0531-0.0116,0.107-0.0111,0.1607l-3.5254,0.0637
		L31.6427,4.3778c-0.0117-0.0571-0.0265-0.1135-0.0466-0.1683L42.1042,0.7526z M29.3966,4.839
		c0.0178,0.0881,0.0457,0.1744,0.0846,0.2571L10.7008,16.4823c-0.0028-0.003-0.0051-0.0066-0.0079-0.0096
		c0,0-0.0016-0.0017-0.0026-0.0027l8.1632-8.6265c0.219,0.2074,0.5634,0.2122,0.7861,0.0025
		c0.1573-0.1481,0.2098-0.3633,0.1602-0.5589L29.3966,4.839z"></path>
</g>
<g id="Layer_1">
</g>
</svg></g></g><defs><style>@font-face {font-family: bebas_neue__bold;src: url(https://pismo.tailorbrands.com/v2/px_fonts/bebas_neue__bold)}</style><style>@font-face {font-family: bebas_neue__light;src: url(https://pismo.tailorbrands.com/v2/px_fonts/bebas_neue__light)}</style><style>@font-face {font-family: hkgrotesk__light_italic;src: url(https://pismo.tailorbrands.com/v2/px_fonts/hkgrotesk__light_italic)}</style></defs></svg>